<?xml version="1.0" encoding="utf-8"?>
<!-- Generator: Adobe Illustrator 22.0.0, SVG Export Plug-In . SVG Version: 6.00 Build 0)  -->
<svg version="1.1" id="Layer_1" xmlns="http://www.w3.org/2000/svg" xmlns:xlink="http://www.w3.org/1999/xlink" x="0px" y="0px"
	 width="146.4px" height="256px" viewBox="0 0 146.4 256" style="enable-background:new 0 0 146.4 256;" xml:space="preserve">
<style type="text/css">
	.st0{fill:#04A0AA;}
	.st1{fill:#1B1A1B;}
	.st2{fill:#FEFEFE;}
</style>
<path class="st0" d="M38.5,70.1c0-7.2,0-14.5-0.1-21.7c0-0.9,0.4-1.4,1.1-1.8c5.8-3.6,11.5-7.3,17.2-11c4.9-3.2,9.6-6.5,14.5-9.7
	c5.7-3.7,11.5-7.1,17-11c7.3-5.1,15-9.6,22.4-14.7c0.1-0.1,0.2,0,0.8-0.1c-1,24.9-1.3,49.7-2.6,74.5c-0.1,4.6-0.7,9.2-0.5,13.9
	c0.1,1.1-0.1,2.2-0.1,3.3c-2.7,0.4-5.3,0.3-8,0.3c-6.7,0.1-13.3,0.1-20,0.2c-1.4,0-1.7-0.4-1.7-1.8c0-10.1,0-20.1,0-30.2
	c0-2.3-0.2-2.5-2.7-2.6c-4.4-0.2-8.7-0.4-13.4-0.6c0,4.3,0,8.7,0,13C54.4,70.1,46.4,70.1,38.5,70.1z"/>
<path class="st0" d="M38.9,111.2c3-0.4,6-0.1,9-0.1c4.1,0,8.1,0.2,12.2,0.1c1.7,0,2,0.5,2,2.1c0.1,36.2,0.2,72.4,0.3,108.6
	c0,3.3,0,6.7,0,10c0,0.8-0.1,1.5-0.7,2.1c-7.3,7-14.5,14.1-21.8,21.1c-0.2,0.2-0.5,0.3-1.3,0.8c0-2.8,0-5.1,0-7.4
	c-0.3-34.7-0.1-69.4-0.1-104.1c0-0.5,0.1-0.9,0.1-1.4c0.9,0.1,1.1-0.4,1-1.2c0-1.7-0.3-3.5-0.3-5.2
	C39.5,128.2,38.7,119.7,38.9,111.2z"/>
<path class="st0" d="M111.1,143.1c0.1,11.6,0,23.1,0.3,34.7c0.1,4.3-1.3,7.4-4.5,10.3c-9,8.1-17.8,16.5-26.7,24.7
	c-0.3,0.3-0.6,0.7-1.1,0.7c-0.4-0.4-0.2-0.9-0.2-1.3c-0.6-33.1-0.3-66.2-0.4-99.4c0-1.1-0.1-2,1.6-1.9c10,0.1,20,0,30,0.1
	c0.3,0,0.6,0.1,1,0.2c0,0.9,0.1,1.8,0.1,2.7C111,123.6,111.1,133.4,111.1,143.1z"/>
<path class="st1" d="M38.9,111.2c-0.2,8.5,0.6,17,0.4,25.5c0,1.7,0.3,3.5,0.3,5.2c0,0.8-0.2,1.3-1,1.2c-0.7-1.4-2.2-1.9-3.5-2.7
	C24,133.2,12.9,126.1,1.7,119c-1-0.6-1.3-1.3-1.3-2.5C0.3,101.7,0.2,86.9,0,72c0-1.5,0.3-1.9,1.9-1.9c11.5,0.1,23,0,34.5,0
	c0.7,0,1.4-0.1,2.1-0.1c7.9,0,15.9,0,23.8,0c0,7,0,14,0.1,21c0,1.5-1,1.1-1.7,1.1c-11.1,0-22.2,0-33.3,0c-3.1,0-6.3,0.1-9.4,0
	c-1.3,0-1.5,0.4-1.5,1.5c0.1,5.3,0.1,10.6,0,15.9c0,1.3,0.4,1.5,1.5,1.5c6.6,0,13.2,0,19.8,0C38.2,111,38.6,111.1,38.9,111.2z"/>
<path class="st1" d="M111.1,143.1c0-9.8,0-19.5-0.1-29.3c0-0.9,0-1.8-0.1-2.7c4.7-0.4,9.4-0.1,14.1-0.1c1.3,0,1.8-0.3,1.7-1.7
	c-0.1-5.3-0.1-10.6,0-15.9c0-1.4-0.4-1.7-1.8-1.7c-5,0.1-9.9,0.1-14.9,0.1c-0.6,0-1.3,0.2-1.9-0.2c0-1.1,0.1-2.2,0.1-3.3
	c-0.2-4.6,0.4-9.2,0.5-13.9c12,7.9,24.1,15.8,36.1,23.6c1,0.7,1.4,1.4,1.4,2.6c-0.1,13.5,0,27,0,40.5c0,1.4-0.3,1.8-1.8,1.8
	C133.4,143.1,122.2,143.1,111.1,143.1z"/>
<path class="st2" d="M78.9,213.1c-0.1-0.3,0-0.6,0-1c-0.6-33.1-0.3-66.2-0.4-99.4c0-1.1-0.1-2,1.6-1.9c10,0.1,20,0,30,0.1
	c0.3,0,0.6,0.1,1,0.2c4.7-0.4,9.4-0.1,14.1-0.1c1.3,0,1.8-0.3,1.7-1.7c-0.1-5.3-0.1-10.6,0-15.9c0-1.4-0.4-1.7-1.8-1.7
	c-5,0.1-9.9,0.1-14.9,0.1c-0.6,0-1.3,0.2-1.9-0.2c-2.7,0.4-5.3,0.3-8,0.3c-6.7,0.1-13.3,0.1-20,0.2c-1.4,0-1.7-0.4-1.7-1.8
	c0-10.1,0-20.1,0-30.2c0-2.3-0.2-2.5-2.7-2.6c-4.4-0.2-8.7-0.4-13.4-0.6c0,4.3,0,8.7,0,13c0,7,0,14,0.1,21c0,1.5-1,1.1-1.7,1.1
	c-11.1,0-22.2,0-33.3,0c-3.1,0-6.3,0.1-9.4,0c-1.3,0-1.5,0.4-1.5,1.5c0.1,5.3,0.1,10.6,0,15.9c0,1.3,0.4,1.5,1.5,1.5
	c6.6,0,13.2,0,19.8,0c0.4,0,0.8,0.1,1.1,0.2c3-0.4,6-0.1,9-0.1c4.1,0,8.1,0.2,12.2,0.1c1.7,0,2,0.5,2,2.1
	c0.1,36.2,0.2,72.4,0.3,108.6c0,3.3,0,6.7,0,10c0,0.2,0,0.3,0,0.4L78.9,213.1z"/>
</svg>
