<svg xmlns="http://www.w3.org/2000/svg" viewBox="0 0 28.58 50">
  <title>logo-nav-white</title>
  <path d="M7.52,13.68c0-1.41,0-2.83,0-4.24a.38.38,0,0,1,.22-.36C8.85,8.37,10,7.66,11.09,6.93,12,6.31,13,5.67,13.92,5c1.11-.72,2.24-1.39,3.33-2.15C18.67,1.89,20.18,1,21.61,0c0,0,.05,0,.15,0-.21,4.86-.26,9.71-.52,14.55,0,.9-.14,1.8-.1,2.7,0,.22,0,.44,0,.65a9.17,9.17,0,0,1-1.57.06l-3.9,0c-.28,0-.34-.08-.34-.34,0-2,0-3.94,0-5.9,0-.46,0-.48-.53-.51l-2.62-.11v2.55Z" transform="translate(0 0)" style="fill: #fff"/>
  <path d="M7.61,21.72a11.36,11.36,0,0,1,1.75,0c.79,0,1.58,0,2.37,0,.34,0,.4.11.4.42q0,10.61,0,21.21c0,.65,0,1.3,0,2a.52.52,0,0,1-.15.41L7.79,49.84s-.1.06-.25.16V48.55c-.07-6.77,0-13.55,0-20.33a2.06,2.06,0,0,1,0-.26c.17,0,.21-.09.2-.24,0-.34-.06-.69-.06-1C7.71,25,7.56,23.38,7.61,21.72Z" transform="translate(0 0)" style="fill: #fff"/>
  <path d="M21.69,28c0,2.26,0,4.52.07,6.78a2.42,2.42,0,0,1-.89,2c-1.76,1.59-3.47,3.22-5.2,4.83-.07.06-.12.13-.23.13s0-.17,0-.25C15.28,35,15.33,28.5,15.32,22c0-.22,0-.39.3-.38h5.86l.19,0c0,.18,0,.36,0,.54C21.69,24.14,21.69,26.05,21.69,28Z" transform="translate(0 0)" style="fill: #fff"/>
  <path d="M7.61,21.72c-.05,1.66.1,3.32.07,5,0,.33.06.68.06,1,0,.15,0,.25-.2.24-.14-.28-.44-.38-.68-.53C4.69,26,2.51,24.63.33,23.24a.48.48,0,0,1-.26-.48c0-2.9,0-5.79-.07-8.69,0-.29.06-.38.37-.38,2.24,0,4.49,0,6.73,0l.42,0h4.65c0,1.36,0,2.73,0,4.09,0,.3-.19.21-.33.21H5.35c-.62,0-1.23,0-1.84,0-.25,0-.29.08-.29.3,0,1,0,2.07,0,3.11,0,.24.07.29.3.28H7.38A.93.93,0,0,1,7.61,21.72Z" transform="translate(0 0)" style="fill: #fff"/>
  <path d="M21.69,28c0-1.9,0-3.81,0-5.71,0-.18,0-.36,0-.54.91-.07,1.83,0,2.75,0,.26,0,.34-.06.34-.33,0-1,0-2.07,0-3.1,0-.29-.08-.33-.34-.33-1,0-1.94,0-2.91,0a.68.68,0,0,1-.37,0c0-.21,0-.43,0-.65,0-.9.09-1.8.1-2.7l7.06,4.61a.55.55,0,0,1,.28.52q0,4,0,7.92c0,.28-.06.36-.35.36C26.05,27.94,23.87,28,21.69,28Z" transform="translate(0 0)" style="fill: #fff"/>
</svg>
