<svg xmlns="http://www.w3.org/2000/svg" viewBox="0 0 828.29 256">
  <title>logo</title>
  <path d="M38.52,70.06c0-7.25,0-14.5-.12-21.75a1.93,1.93,0,0,1,1.13-1.82c5.76-3.65,11.52-7.28,17.24-11,4.87-3.17,9.64-6.49,14.51-9.67,5.65-3.7,11.48-7.15,17-11,7.3-5.12,15-9.56,22.35-14.67.09-.07.24-.05.75-.14-1,24.88-1.33,49.69-2.64,74.48-.09,4.62-.72,9.22-.5,13.86,0,1.1-.06,2.21-.09,3.32a53.62,53.62,0,0,1-8,.32c-6.67.07-13.33.07-20,.19-1.4,0-1.74-.42-1.74-1.77,0-10.06,0-20.13,0-30.19,0-2.33-.15-2.48-2.73-2.59L62.3,57.05v13Z" transform="translate(0)" style="fill: #04a0aa"/>
  <path d="M38.94,111.18c3-.44,6-.06,9-.07,4,0,8.1.2,12.15.12,1.7,0,2,.54,2,2.11q.09,54.32.27,108.63c0,3.33,0,6.66,0,10a2.54,2.54,0,0,1-.75,2.09q-10.9,10.55-21.77,21.12a12.08,12.08,0,0,1-1.29.82c0-2.77,0-5.08,0-7.4-.35-34.7-.09-69.41-.15-104.11a12.85,12.85,0,0,1,.15-1.36c.89.07,1.06-.43,1-1.21,0-1.75-.34-3.51-.31-5.21C39.49,128.2,38.7,119.7,38.94,111.18Z" transform="translate(0)" style="fill: #04a0aa"/>
  <path d="M111.07,143.11c.08,11.56,0,23.13.32,34.68a12.31,12.31,0,0,1-4.52,10.28c-9,8.11-17.78,16.47-26.65,24.73-.32.3-.61.67-1.14.66-.39-.37-.22-.86-.23-1.28-.6-33.12-.35-66.24-.41-99.36,0-1.13-.06-1.95,1.56-1.94,10,.08,20,.05,30,.06a5.4,5.4,0,0,1,1,.18c0,.91.07,1.82.07,2.73Q111.06,128.48,111.07,143.11Z" transform="translate(0)" style="fill: #04a0aa"/>
  <path d="M38.94,111.18c-.24,8.52.55,17,.4,25.53,0,1.7.28,3.46.31,5.21,0,.78-.16,1.28-1,1.21-.74-1.42-2.24-1.92-3.46-2.71Q18.46,129.65,1.68,119a2.55,2.55,0,0,1-1.34-2.49Q.24,94.28,0,72c0-1.49.31-1.94,1.88-1.93,11.5.08,23,0,34.49,0,.71,0,1.43-.06,2.14-.09H62.3c0,7,0,14,.11,21,0,1.54-1,1.06-1.71,1.06q-16.66,0-33.33,0c-3.13,0-6.27.07-9.41,0-1.26,0-1.5.36-1.48,1.53.06,5.3.07,10.59,0,15.88,0,1.26.37,1.49,1.54,1.48,6.6,0,13.2,0,19.8,0A9.19,9.19,0,0,1,38.94,111.18Z" transform="translate(0)" style="fill: #1b1a1b"/>
  <path d="M111.07,143.11q0-14.62-.06-29.26c0-.91-.05-1.82-.07-2.73,4.69-.38,9.38-.13,14.07-.14,1.34,0,1.76-.28,1.74-1.69q-.14-7.94,0-15.87c0-1.44-.44-1.69-1.76-1.66-5,.1-9.93.08-14.89.1a3.42,3.42,0,0,1-1.92-.2c0-1.11.14-2.22.09-3.32-.22-4.64.41-9.24.5-13.86q18.06,11.83,36.14,23.64a2.77,2.77,0,0,1,1.44,2.65q-.09,20.28,0,40.54c0,1.44-.3,1.83-1.79,1.82C133.4,143.07,122.23,143.11,111.07,143.11Z" transform="translate(0)" style="fill: #1b1a1b"/>
  <path d="M78.87,213.13a3.35,3.35,0,0,1,0-.95c-.6-33.12-.35-66.24-.41-99.36,0-1.13-.06-1.95,1.56-1.94,10,.08,20,.05,30,.06a5.4,5.4,0,0,1,1,.18c4.69-.38,9.38-.13,14.07-.14,1.34,0,1.76-.28,1.74-1.69q-.14-7.94,0-15.87c0-1.44-.44-1.69-1.76-1.66-5,.1-9.93.08-14.89.1a3.42,3.42,0,0,1-1.92-.2,53.62,53.62,0,0,1-8,.32c-6.67.07-13.33.07-20,.19-1.4,0-1.74-.42-1.74-1.77,0-10.06,0-20.13,0-30.19,0-2.33-.15-2.48-2.73-2.59L62.3,57.05v13c0,7,0,14,.11,21,0,1.54-1,1.06-1.71,1.06q-16.66,0-33.33,0c-3.13,0-6.27.07-9.41,0-1.26,0-1.5.36-1.48,1.53.06,5.3.07,10.59,0,15.88,0,1.26.37,1.49,1.54,1.48,6.6,0,13.2,0,19.8,0a9.19,9.19,0,0,1,1.13.19c3-.44,6-.06,9-.07,4,0,8.1.2,12.15.12,1.7,0,2,.54,2,2.11q.09,54.32.27,108.63c0,3.33,0,6.66,0,10,0,.15,0,.29,0,.43Z" transform="translate(0)" style="fill: #fefefe"/>
  <g>
    <path d="M210,99.74l-4.89,5.66a16.16,16.16,0,0,0-10.69-4.05c-4.19,0-7.06,1.82-7.06,5.24s1.82,4.75,9.72,7.2c8.73,2.79,14.32,6.43,14.32,15.37s-7,15.1-18.73,15.1c-8,0-13.9-2.87-17.89-6.78l5.24-5.8a18.42,18.42,0,0,0,12.37,4.82c5,0,8.32-2.38,8.32-6.64,0-3.84-1.89-5.52-9.22-7.76-10.49-3.28-14.68-7.47-14.68-14.81,0-8.25,7.13-13.63,16.91-13.63C200.88,93.66,205.77,95.83,210,99.74Z" transform="translate(0)"/>
    <path d="M217.87,134.19V91.35l9.92-1.11v43.68c0,1.6.63,2.44,2,2.44a4.25,4.25,0,0,0,2-.42l2,7.06a16.27,16.27,0,0,1-6.36,1.26C221.43,144.26,217.87,140.62,217.87,134.19Z" transform="translate(0)"/>
    <path d="M269.58,137.55l-2.1,6.57c-4.19-.35-7-1.75-8.52-5.45-2.66,4.05-6.71,5.59-11.11,5.59-7.41,0-12-4.75-12-11.46,0-8.11,6.08-12.51,17-12.51h4.26v-1.82c0-4.61-2-6.08-6.64-6.08a33.77,33.77,0,0,0-9.78,2l-2.24-6.64a38.46,38.46,0,0,1,13.7-2.73c10.27,0,14.68,4.54,14.68,12.93v15C266.86,135.87,267.76,136.92,269.58,137.55ZM257.14,133V126h-3.28c-5.38,0-8,2-8,6,0,3.28,1.68,5.17,4.75,5.17C253.44,137.13,255.6,135.66,257.14,133Z" transform="translate(0)"/>
    <path d="M294.6,143.14H282.79l-12.09-37h10.76l7.34,29.28,7.48-29.28h10.2Z" transform="translate(0)"/>
    <path d="M322.21,92.82a5.77,5.77,0,0,1-6.08,5.8,5.8,5.8,0,1,1,0-11.6A5.78,5.78,0,0,1,322.21,92.82Zm-1,50.32h-9.92v-37h9.92Z" transform="translate(0)"/>
    <path d="M358.69,109.46l-4.33,5.87a11.25,11.25,0,0,0-7.27-2.66c-5,0-7.89,3.56-7.89,12.16s3.14,11.46,7.82,11.46c2.73,0,4.61-.84,7.34-2.58l4.33,6.21a18.55,18.55,0,0,1-12.16,4.34c-11,0-17.82-7.55-17.82-19.36S335.56,105,346.39,105A17.75,17.75,0,0,1,358.69,109.46Z" transform="translate(0)"/>
    <path d="M417.61,99.46l-5.38,5.59c-3.29-2.51-6-3.77-10-3.77-6.84,0-12.3,5.1-12.3,17.68,0,12.93,3.64,17.61,10.77,17.61a14.84,14.84,0,0,0,7.2-1.75V123h-6.78l-1.05-7.47h17.82v23.83a32.8,32.8,0,0,1-17,4.89c-14.26,0-21.74-8.74-21.74-25.37,0-16.35,10.14-25.23,22.65-25.23A23.17,23.17,0,0,1,417.61,99.46Z" transform="translate(0)"/>
    <path d="M459.47,124.62c0,11.74-6.64,19.64-17.75,19.64S424,136.92,424,124.62c0-11.81,6.64-19.64,17.82-19.64S459.47,112.32,459.47,124.62Zm-25.15,0c0,8.53,2.51,12.23,7.4,12.23s7.41-3.77,7.41-12.23-2.51-12.23-7.34-12.23S434.32,116.16,434.32,124.62Z" transform="translate(0)"/>
    <path d="M492.74,109.46,489,115.12a17.11,17.11,0,0,0-9.22-2.94c-3.29,0-5.11,1.33-5.11,3.36s1.26,3.14,7.76,5c7.41,2,11.6,5.1,11.6,11.67,0,7.68-7.2,12-16,12-6.43,0-11.6-2.17-15.1-5.38l4.89-5.45a16.35,16.35,0,0,0,9.93,3.63c3.7,0,6.08-1.54,6.08-4.05,0-2.8-1.33-3.71-8.18-5.59-7.48-2.1-11-5.8-11-11.4,0-6.29,5.73-11,14.68-11A21,21,0,0,1,492.74,109.46Z" transform="translate(0)"/>
    <path d="M534.26,124.55c0,11.32-5.38,19.71-14.68,19.71a11.64,11.64,0,0,1-9.15-4V157.4l-9.93,1.11V106.1h8.74l.49,4.33A13.52,13.52,0,0,1,520.49,105C530.13,105,534.26,112.6,534.26,124.55Zm-10.35.07c0-9.29-2.37-12.3-6.5-12.3-2.86,0-5.31,2-7,4.75v16.15a7.11,7.11,0,0,0,6.22,3.63C521.19,136.85,523.91,133.29,523.91,124.62Z" transform="translate(0)"/>
    <path d="M573.26,127.63H550.13c.69,7.12,4,9.22,8.8,9.22,3.15,0,5.8-1,9-3.21l4.12,5.59a21.89,21.89,0,0,1-14.05,5c-11.88,0-18.1-7.83-18.1-19.43,0-11.18,6-19.85,16.84-19.85,10.49,0,16.71,7,16.71,18.8C573.47,125,573.33,126.58,573.26,127.63ZM563.61,121c0-5.59-1.88-9.23-6.64-9.23-3.91,0-6.36,2.66-6.84,9.65h13.48Z" transform="translate(0)"/>
    <path d="M580.32,134.19V91.35l9.92-1.11v43.68c0,1.6.63,2.44,2,2.44a4.19,4.19,0,0,0,2-.42l2,7.06a16.27,16.27,0,0,1-6.36,1.26C583.88,144.26,580.32,140.62,580.32,134.19Z" transform="translate(0)"/>
    <path d="M652.16,98.9l-5.1,5.94a13.47,13.47,0,0,0-8.81-3.42c-6.49,0-11.25,4.89-11.25,17.47,0,12.16,4.62,17.26,11.33,17.26,4,0,6.84-1.75,9.64-3.91l4.75,5.94a20.69,20.69,0,0,1-14.81,6.08c-12.93,0-21.74-8.88-21.74-25.37,0-16.28,9.37-25.23,21.53-25.23A20.84,20.84,0,0,1,652.16,98.9Z" transform="translate(0)"/>
    <path d="M688.65,116.16v27h-9.93v-25.3c0-4.26-1.61-5.45-4.05-5.45-2.8,0-5.1,1.89-7.13,5.1v25.65h-9.92V91.35l9.92-1v20c2.94-3.42,6.29-5.31,10.76-5.31C684.73,105,688.65,109.18,688.65,116.16Z" transform="translate(0)"/>
    <path d="M728.41,143.14h-8.59l-.49-5a12.44,12.44,0,0,1-11.25,6.08c-6.85,0-10.35-4.4-10.35-11.53V106.1h9.93v25.37c0,4.05,1.33,5.38,4.05,5.38s5-1.82,6.78-4.82V106.1h9.92Z" transform="translate(0)"/>
    <path d="M761.05,105.61l-1.67,9.58a12.44,12.44,0,0,0-3.29-.49c-4.54,0-6.64,3.35-8,9.29v19.15H738.2v-37h8.6l.91,7.2c1.74-5.17,5.31-8.25,9.64-8.25A13.16,13.16,0,0,1,761.05,105.61Z" transform="translate(0)"/>
    <path d="M791.59,109.46l-4.33,5.87a11.23,11.23,0,0,0-7.27-2.66c-5,0-7.89,3.56-7.89,12.16s3.14,11.46,7.82,11.46c2.73,0,4.62-.84,7.34-2.58l4.33,6.21a18.53,18.53,0,0,1-12.16,4.34c-11,0-17.82-7.55-17.82-19.36S768.46,105,779.29,105A17.75,17.75,0,0,1,791.59,109.46Z" transform="translate(0)"/>
    <path d="M828.29,116.16v27h-9.93v-25.3c0-4.26-1.6-5.45-4.05-5.45-2.8,0-5.1,1.89-7.13,5.1v25.65h-9.92V91.35l9.92-1v20c2.94-3.42,6.29-5.31,10.76-5.31C824.37,105,828.29,109.18,828.29,116.16Z" transform="translate(0)"/>
  </g>
  <g>
    <path d="M192.87,166.28c0,3.93-3.17,5.09-7.47,5.09h-5.47V153.85h4.79c4.58,0,7.39,1.24,7.39,4.48a3.84,3.84,0,0,1-3.22,3.78C190.87,162.48,192.87,163.42,192.87,166.28Zm-9.22-9.74V161h1.83c1.77,0,2.83-.74,2.83-2.31s-1.09-2.12-3.24-2.12Zm5.34,9.59c0-1.95-1.36-2.63-3.24-2.63h-2.1v5.11h1.77C187.5,168.61,189,168.21,189,166.13Z" transform="translate(0)"/>
    <path d="M206.69,165.75h-8.38c.26,2.58,1.47,3.34,3.19,3.34a5.45,5.45,0,0,0,3.27-1.16l1.49,2a7.87,7.87,0,0,1-5.09,1.83c-4.3,0-6.55-2.84-6.55-7s2.17-7.19,6.1-7.19,6.05,2.53,6.05,6.81C206.77,164.81,206.72,165.37,206.69,165.75Zm-3.49-2.4c0-2-.68-3.35-2.41-3.35-1.41,0-2.3,1-2.48,3.5h4.89Z" transform="translate(0)"/>
    <path d="M209.25,168.13V152.61l3.6-.4V168c0,.58.22.89.73.89a1.55,1.55,0,0,0,.71-.16l.73,2.56a5.93,5.93,0,0,1-2.3.46C210.54,171.78,209.25,170.46,209.25,168.13Z" transform="translate(0)"/>
    <path d="M216.75,168.13V152.61l3.59-.4V168c0,.58.23.89.73.89a1.55,1.55,0,0,0,.71-.16l.74,2.56a6,6,0,0,1-2.31.46C218,171.78,216.75,170.46,216.75,168.13Z" transform="translate(0)"/>
    <path d="M228.34,153.14a2.19,2.19,0,0,1-4.38,0,2.19,2.19,0,0,1,4.38,0ZM228,171.37h-3.59V158H228Z" transform="translate(0)"/>
    <path d="M242.75,161.6v9.77h-3.6v-9.16c0-1.55-.56-2-1.47-2s-1.85.69-2.58,1.88v9.26h-3.59V158h3.11l.28,1.7a5.06,5.06,0,0,1,4.1-2.1C241.35,157.55,242.75,159.07,242.75,161.6Z" transform="translate(0)"/>
    <path d="M258.16,158.69a11,11,0,0,1-3.87.5,3.52,3.52,0,0,1,2.48,3.45c0,2.6-2.1,4.5-5.52,4.5a6.46,6.46,0,0,1-1.57-.17,1.08,1.08,0,0,0-.5.88c0,.46.23.89,1.54.89h2.05c3,0,5,1.62,5,3.84,0,2.71-2.35,4.36-6.84,4.36-4.91,0-6.25-1.6-6.25-4.28h3.22c0,1.27.55,1.82,3.11,1.82s3.14-.68,3.14-1.64-.68-1.47-2.1-1.47h-2c-2.81,0-4-1.21-4-2.63a3.1,3.1,0,0,1,1.57-2.51,4,4,0,0,1-2.38-3.82c0-3,2.35-4.86,5.72-4.86a10.71,10.71,0,0,0,6.28-1.62Zm-9.29,3.67a2.17,2.17,0,0,0,2.23,2.45c1.44,0,2.2-.86,2.2-2.5s-.73-2.36-2.22-2.36A2.15,2.15,0,0,0,248.87,162.36Z" transform="translate(0)"/>
    <path d="M271.18,161.6v9.77h-3.6v-9.16c0-1.55-.58-2-1.46-2a3.23,3.23,0,0,0-2.59,1.85v9.29h-3.59V152.61l3.59-.38v7.24a4.9,4.9,0,0,1,3.9-1.92C269.76,157.55,271.18,159.07,271.18,161.6Z" transform="translate(0)"/>
    <path d="M285.84,169.34l-.76,2.38a3.18,3.18,0,0,1-3.09-2,4.53,4.53,0,0,1-4,2,4,4,0,0,1-4.36-4.16c0-2.93,2.2-4.53,6.18-4.53h1.54v-.66c0-1.67-.71-2.2-2.4-2.2a12.48,12.48,0,0,0-3.55.71l-.81-2.4a14,14,0,0,1,5-1c3.72,0,5.31,1.64,5.31,4.68v5.42C284.85,168.74,285.18,169.12,285.84,169.34Zm-4.51-1.64v-2.56h-1.19c-1.95,0-2.91.71-2.91,2.18,0,1.19.61,1.87,1.72,1.87A2.65,2.65,0,0,0,281.33,167.7Z" transform="translate(0)"/>
    <path d="M306.5,161.6v9.77h-3.6v-9.16c0-1.55-.6-2-1.31-2-1,0-1.65.69-2.33,1.88v9.26h-3.6v-9.16c0-1.55-.58-2-1.31-2-1,0-1.65.69-2.31,1.88v9.26h-3.59V158h3.11l.28,1.67a4.64,4.64,0,0,1,3.9-2.07,3.21,3.21,0,0,1,3.19,2.18,4.8,4.8,0,0,1,4-2.18C305.05,157.55,306.5,159.07,306.5,161.6Z" transform="translate(0)"/>
    <path d="M313.34,169.6a6.28,6.28,0,0,1-.71,2.48L311,175.77h-2.1l1.06-4.4a2.15,2.15,0,0,1,1.22-3.92A2.12,2.12,0,0,1,313.34,169.6Z" transform="translate(0)"/>
    <path d="M338.3,171.37h-4.84L331,157.67l-2.55,13.7h-4.71l-3-17.52h3.72l2,14.63,2.66-14.63H333l2.56,14.63,2.25-14.63h3.52Z" transform="translate(0)"/>
    <path d="M351.85,167.45h-5.5l-1,3.92h-3.88l5.39-17.52h4.54l5.36,17.52h-3.95Zm-.71-2.76-2.05-8.08-2,8.08Z" transform="translate(0)"/>
  </g>
</svg>
