<?xml version="1.0" standalone="no"?>
<!DOCTYPE svg PUBLIC "-//W3C//DTD SVG 20010904//EN"
 "http://www.w3.org/TR/2001/REC-SVG-20010904/DTD/svg10.dtd">
<svg version="1.0" xmlns="http://www.w3.org/2000/svg"
 width="300.000000pt" height="300.000000pt" viewBox="0 0 300.000000 300.000000"
 preserveAspectRatio="xMidYMid meet">
<metadata>
Created by potrace 1.11, written by Peter Selinger 2001-2013
</metadata>
<g transform="translate(0.000000,300.000000) scale(0.100000,-0.100000)"
fill="#000000" stroke="none">
<path d="M1739 2717 c-86 -56 -255 -167 -377 -246 l-221 -144 -3 -121 -3 -121
-202 -3 -203 -2 0 -253 0 -253 203 -129 202 -130 5 -594 5 -593 118 112 117
112 -2 647 -3 646 -235 5 -235 5 -3 98 -3 97 247 0 247 0 -7 185 -6 186 87 -3
88 -3 3 -182 2 -183 247 1 c135 0 250 -4 255 -9 5 -5 8 -49 6 -98 l-3 -89
-252 -3 -253 -2 0 -541 0 -541 58 51 c31 28 107 97 167 154 l110 104 3 217 3
216 185 0 184 0 0 235 0 236 -200 130 -200 131 5 37 c6 47 27 732 23 737 -2 2
-74 -43 -159 -99z"/>
</g>
</svg>
